<?xml version="1.0" encoding="UTF-8"?>
<svg width="64" height="64" version="1.1" viewBox="0 0 64 64" xmlns="http://www.w3.org/2000/svg">
    <style>path { fill: #111; } @media (prefers-color-scheme: dark) { path { fill: #ddd; } }</style>
    <path d="m-0.0024375-0.06v64h64v-64zm7.9294 7.9294h34.963c7.2527 0 13.178 5.925 13.178 13.178 0 4.5145-2.2965 8.5156-5.7793 10.892 3.4828 2.3773 5.7793 6.3782 5.7793 10.892v13.178h-4.5762v-13.178c0-4.7756-3.8259-8.6054-8.6018-8.6054h-10.752c2.0003 2.3124 3.2109 5.324 3.2109 8.6054 0 3.2771-1.2075 6.2806-3.2032 8.5916h9.4942v4.586h-26.318v-4.586h6.8496c4.7757 0 8.6018-3.8161 8.6018-8.5916 0-4.7756-3.8259-8.6054-8.6018-8.6054h-14.244v-4.586h14.244c4.7757 0 8.6018-3.818 8.6018-8.5938 0-4.7757-3.8259-8.6018-8.6018-8.6018h-14.244v-4.5761zm24.211 4.5761c2.0002 2.3125 3.2109 5.3202 3.2109 8.6018 0 3.2756-1.2073 6.283-3.2011 8.5938h10.742c4.7757 0 8.6018-3.818 8.6018-8.5938 0-4.7757-3.8259-8.6018-8.6018-8.6018h-10.752z" />
</svg>
